<svg width="28" height="28" viewBox="0 0 28 28" fill="none" xmlns="http://www.w3.org/2000/svg">
<circle cx="14" cy="14" r="14" fill="#C4C4C4"/>
<g clip-path="url(#clip0_25_277)">
<path d="M17.0648 6.4668H10.7386C7.82751 6.4668 5.4668 8.82751 5.4668 11.7386V18.0648C5.4668 20.9758 7.82751 23.3365 10.7386 23.3365H17.0648C19.9758 23.3365 22.3365 20.9758 22.3365 18.0648V11.7386C22.3365 8.82751 19.9758 6.4668 17.0648 6.4668ZM20.755 18.0648C20.755 20.0997 19.0997 21.755 17.0648 21.755H10.7386C8.70368 21.755 7.04834 20.0997 7.04834 18.0648V11.7386C7.04834 9.70368 8.70368 8.04834 10.7386 8.04834H17.0648C19.0997 8.04834 20.755 9.70368 20.755 11.7386V18.0648Z" fill="black"/>
<path d="M13.9015 10.6841C11.5724 10.6841 9.68408 12.5724 9.68408 14.9015C9.68408 17.2306 11.5724 19.119 13.9015 19.119C16.2306 19.119 18.119 17.2306 18.119 14.9015C18.119 12.5724 16.2306 10.6841 13.9015 10.6841ZM13.9015 17.5374C12.4486 17.5374 11.2656 16.3544 11.2656 14.9015C11.2656 13.4476 12.4486 12.2656 13.9015 12.2656C15.3544 12.2656 16.5374 13.4476 16.5374 14.9015C16.5374 16.3544 15.3544 17.5374 13.9015 17.5374Z" fill="black"/>
<path d="M18.4355 10.9301C18.7459 10.9301 18.9975 10.6785 18.9975 10.3681C18.9975 10.0578 18.7459 9.80615 18.4355 9.80615C18.1251 9.80615 17.8735 10.0578 17.8735 10.3681C17.8735 10.6785 18.1251 10.9301 18.4355 10.9301Z" fill="black"/>
</g>
<defs>
<clipPath id="clip0_25_277">
<rect width="18" height="18" fill="white" transform="translate(5 6)"/>
</clipPath>
</defs>
</svg>
